<svg xmlns="http://www.w3.org/2000/svg" width="19" height="18" viewBox="0 0 19 18">
  <g id="아이템보기_아이콘" data-name="아이템보기 아이콘" transform="translate(0.5 0.5)">
    <g id="착장보기_아이콘" data-name="착장보기 아이콘" transform="translate(5)" opacity="0">
      <circle id="타원_18" data-name="타원 18" cx="2" cy="2" r="2" transform="translate(2)" fill="none" stroke="gray" stroke-linecap="round" stroke-width="1"/>
      <g id="그룹_6263" data-name="그룹 6263" transform="translate(-355.5 -60.5)">
        <path id="패스_6702" data-name="패스 6702" d="M356.5,68.5v10h1.667V72.346h1.667V78.5H361.5v-10" transform="translate(0.5 -1)" fill="none" stroke="gray" stroke-linecap="round" stroke-linejoin="round" stroke-width="1"/>
        <path id="패스_6703" data-name="패스 6703" d="M361.188,71.5H362.5v-6h-8v6h1.359" transform="translate(1)" fill="none" stroke="gray" stroke-linecap="round" stroke-linejoin="round" stroke-width="1"/>
      </g>
    </g>
    <g id="아이템보기아이콘" transform="translate(1 2)">
      <path id="패스_6700" data-name="패스 6700" d="M321.69,69.287,319.8,70.908l-2.605-3.553,3.557-3.081,2.965-1.241a2.666,2.666,0,0,0,4.956,0l2.964,1.241,3.558,3.081-2.606,3.553-1.894-1.621" transform="translate(-318.19 -63.033)" fill="none" stroke="gray" stroke-linecap="round" stroke-linejoin="round" stroke-width="1"/>
      <path id="패스_6701" data-name="패스 6701" d="M332.19,70.033v9h-9v-9" transform="translate(-319.69 -65.033)" fill="none" stroke="gray" stroke-linecap="round" stroke-linejoin="round" stroke-width="1"/>
    </g>
  </g>
</svg>
