<svg xmlns="http://www.w3.org/2000/svg" width="13" height="13" viewBox="0 0 13 13"><g transform="translate(0.5 0.5)"><path d="M2.443,0H9.556A2.444,2.444,0,0,1,12,2.444V9.557A2.443,2.443,0,0,1,9.557,12H2.443A2.443,2.443,0,0,1,0,9.557V2.443A2.443,2.443,0,0,1,2.443,0Z" fill="none" stroke="gray" stroke-miterlimit="10" stroke-width="1"/><circle cx="2.5" cy="2.5" r="2.5" transform="translate(3.5 3.5)" fill="none" stroke="gray" stroke-miterlimit="10" stroke-width="1.124"/><path d="M12.9,2.849a.75.75,0,1,1-.75-.75.75.75,0,0,1,.75.75" transform="translate(-2.5 -0.5)" fill="gray"/></g></svg>