<svg id="bluemark_icon" data-name="bluemark icon" xmlns="http://www.w3.org/2000/svg" width="37.213" height="18" viewBox="0 0 37.213 18">
  <g id="패스_6734" data-name="패스 6734" transform="translate(-276.777 -61.636)" fill="none" stroke-miterlimit="10">
    <path d="M276.777,79.636v-18h12v18l-6-5Z" stroke="none"/>
    <path d="M 287.7769165039062 77.50131988525391 L 287.7769165039062 62.63636016845703 L 277.7769165039062 62.63636016845703 L 277.7769165039062 77.50131988525391 L 282.7769165039062 73.33464813232422 L 287.7769165039062 77.50131988525391 M 288.7769165039062 79.63636016845703 L 282.7769165039062 74.63636016845703 L 276.7769165039062 79.63636016845703 L 276.7769165039062 61.63636016845703 L 288.7769165039062 61.63636016845703 L 288.7769165039062 79.63636016845703 Z" stroke="none" fill="#0000c5"/>
  </g>
  <g id="그룹_6554" data-name="그룹 6554" transform="translate(-49.559 -0.076)">
    <path id="패스_6758" data-name="패스 6758" d="M85.6,14.49q2.146,0,2.146,1.637a1.554,1.554,0,0,1-1.5,1.637l1.907,2.66h-.818l-1.813-2.605h-.167v2.605h-.668V14.49Zm-.246,2.747h.295a1.824,1.824,0,0,0,1.068-.26.923.923,0,0,0,.362-.8.931.931,0,0,0-.354-.83,1.818,1.818,0,0,0-1.021-.239h-.35Z" transform="translate(-6.124 -4.855)" fill="#0000c5"/>
    <path id="패스_6759" data-name="패스 6759" d="M91.387,14.49v2.542l2.552-2.542h.9l-2.813,2.763,2.909,3.172h-.923L91.554,17.7l-.167.165v2.558H90.72V14.49Z" transform="translate(-8.16 -4.855)" fill="#0000c5"/>
    <path id="패스_6760" data-name="패스 6760" d="M72.614,20.247l-.959-4.969h0l-.252-1.3-.442,1.195h0l-1.375,3.721-1.375-3.721h0l-.442-1.195-.252,1.3h0l-.959,4.969h.684l.729-3.824,1.615,4.068L71.2,16.423l.729,3.824Z" transform="translate(0 -4.677)" fill="#0000c5"/>
    <path id="패스_6761" data-name="패스 6761" d="M80.628,20.27h.731l-2.471-6.141v-.077l-.016.039-.015-.039v.077L76.388,20.27h.731l.67-1.681h2.169Zm-2.593-2.3.838-2.106.839,2.106Z" transform="translate(-3.32 -4.704)" fill="#0000c5"/>
    <path id="패스_6762" data-name="패스 6762" d="M69.2,2.339a2.254,2.254,0,0,1,1.454.413,1.447,1.447,0,0,1,.509,1.192,1.519,1.519,0,0,1-.139.657,1.223,1.223,0,0,1-.449.5,1.44,1.44,0,0,1,.819.547,1.58,1.58,0,0,1,.318.98,1.447,1.447,0,0,1-.56,1.208,2.459,2.459,0,0,1-1.546.437h-1.43V2.339Zm-.358,2.613h.31A2.216,2.216,0,0,0,70,4.833a.758.758,0,0,0,.381-.334,1.179,1.179,0,0,0,.115-.556.944.944,0,0,0-.274-.759,1.758,1.758,0,0,0-1.077-.232h-.3Zm.707,2.708a1.905,1.905,0,0,0,1.117-.272.936.936,0,0,0,.377-.814.893.893,0,0,0-.389-.787,2.125,2.125,0,0,0-1.192-.268h-.62V7.66Z" transform="translate(-0.545)" fill="#0000c5"/>
    <path id="패스_6763" data-name="패스 6763" d="M76.643,2.339V7.66h1.99v.614H75.975V2.339Z" transform="translate(-3.18)" fill="#0000c5"/>
    <path id="패스_6764" data-name="패스 6764" d="M82.794,2.339V6a2.412,2.412,0,0,0,.167,1.055,1.245,1.245,0,0,0,.536.512,1.611,1.611,0,0,0,.767.2,1.541,1.541,0,0,0,.7-.166,1.392,1.392,0,0,0,.485-.365,1.217,1.217,0,0,0,.219-.46,3.589,3.589,0,0,0,.064-.788V2.339H86.4V6.125a2.959,2.959,0,0,1-.123.941,1.761,1.761,0,0,1-.433.669,2.131,2.131,0,0,1-.719.476,2.281,2.281,0,0,1-.862.165A2.229,2.229,0,0,1,83.2,8.112a2.106,2.106,0,0,1-.787-.7,2.376,2.376,0,0,1-.29-1.3V2.339Z" transform="translate(-5.258)" fill="#0000c5"/>
    <path id="패스_6765" data-name="패스 6765" d="M93.827,2.339v.614h-2.44V4.716h2.369V5.33H91.387V7.66h2.44v.614H90.72V2.339Z" transform="translate(-8.16)" fill="#0000c5"/>
  </g>
</svg>
