<svg xmlns="http://www.w3.org/2000/svg" xmlns:xlink="http://www.w3.org/1999/xlink" width="18" height="15" viewBox="0 0 18 15">
  <defs>
    <clipPath id="clip-path">
      <rect id="사각형_2729" data-name="사각형 2729" width="18" height="15" fill="gray"/>
    </clipPath>
  </defs>
  <g id="hide_icon" data-name="hide icon" clip-path="url(#clip-path)">
    <path id="패스_7163" data-name="패스 7163" d="M18,54.733c-.159.194-.317.388-.477.58s-.292.374-.459.541c-.442.439-.878.885-1.348,1.3a13.371,13.371,0,0,1-3.529,2.263,8.659,8.659,0,0,1-1.994.58,7.094,7.094,0,0,1-1.729.085,9.249,9.249,0,0,1-1.506-.266,9.578,9.578,0,0,1-2.89-1.321A14.693,14.693,0,0,1,2.63,57.425c-.542-.455-1.059-.939-1.56-1.435a10.722,10.722,0,0,1-.922-1.061.529.529,0,0,1,.015-.747c.367-.438.752-.862,1.145-1.277a9.935,9.935,0,0,1,.913-.878c.546-.446,1.1-.886,1.686-1.281a14.057,14.057,0,0,1,1.488-.839,8.116,8.116,0,0,1,1.643-.6,7.254,7.254,0,0,1,1.982-.263,8.281,8.281,0,0,1,2.9.571,10.323,10.323,0,0,1,2.1,1.092c.535.369,1.051.765,1.557,1.171a11.114,11.114,0,0,1,1.043.942c.436.452.839.934,1.253,1.406a1.463,1.463,0,0,1,.129.206ZM1.348,54.552c.181.205.342.411.527.593a18.724,18.724,0,0,0,2.258,1.987,10.323,10.323,0,0,0,3.06,1.556,6.606,6.606,0,0,0,1.8.28,3.381,3.381,0,0,0,.36-.032,6.776,6.776,0,0,0,.718-.073,8.9,8.9,0,0,0,2.375-.849,13.083,13.083,0,0,0,2.429-1.678c.472-.407.905-.857,1.348-1.295.151-.149.278-.322.414-.481-.163-.184-.309-.365-.473-.529-.327-.327-.649-.66-1-.962-.476-.409-.962-.81-1.47-1.181a9.552,9.552,0,0,0-2.4-1.273,6.682,6.682,0,0,0-2.532-.422,6.174,6.174,0,0,0-1.446.227,8.025,8.025,0,0,0-1.553.589c-.4.208-.8.433-1.177.676a11.742,11.742,0,0,0-1.8,1.416c-.2.189-.4.373-.589.567-.287.292-.567.59-.849.884" transform="translate(-0.001 -46.959)" fill="gray"/>
    <path id="패스_7164" data-name="패스 7164" d="M127.475,105.333a3.43,3.43,0,1,1,3.593-3.53,3.48,3.48,0,0,1-3.593,3.53m-.012-5.694a2.283,2.283,0,1,0-.019,4.566,2.287,2.287,0,1,0,.019-4.566" transform="translate(-118.514 -94.304)" fill="gray"/>
    <path id="패스_7165" data-name="패스 7165" d="M0,0,20.445.361l.02,1.15L.02,1.15Z" transform="translate(1.286 14.201) rotate(-45)" fill="gray"/>
  </g>
</svg>
