<svg id="제품취급유의사항_아이콘" data-name="제품취급유의사항 아이콘" xmlns="http://www.w3.org/2000/svg" xmlns:xlink="http://www.w3.org/1999/xlink" width="17" height="17.232" viewBox="0 0 17 17.232">
  <defs>
    <clipPath id="clip-path">
      <rect id="사각형_2315" data-name="사각형 2315" width="17" height="17.232" transform="translate(0 -2.464)" fill="none"/>
    </clipPath>
  </defs>
  <g id="그룹_7768" data-name="그룹 7768" transform="translate(0 2.464)" clip-path="url(#clip-path)">
    <path id="패스_7097" data-name="패스 7097" d="M11.014,11.028,14.551,7.6a1.157,1.157,0,0,1,1.614,0,1.1,1.1,0,0,1,0,1.584s-3.383,3.346-4.124,4.074a4.361,4.361,0,0,1-3.2,1.014H2.773" fill="none" stroke="#fff" stroke-miterlimit="10" stroke-width="1"/>
    <path id="패스_7098" data-name="패스 7098" d="M2.773,10.46A5.27,5.27,0,0,1,6.166,9.233h3.942a1.121,1.121,0,1,1,0,2.241H6.649" fill="none" stroke="#fff" stroke-linecap="round" stroke-miterlimit="10" stroke-width="1"/>
    <rect id="사각형_2314" data-name="사각형 2314" width="2.273" height="3.808" transform="translate(0.5 10.46)" fill="none" stroke="#fff" stroke-miterlimit="10" stroke-width="1"/>
    <line id="선_2694" data-name="선 2694" y1="5" transform="translate(7.941 -0.732)" fill="none" stroke="#fff" stroke-linejoin="round" stroke-width="1.5"/>
    <path id="패스_7099" data-name="패스 7099" d="M7.341,6.25a.85.85,0,1,1,.85.85.851.851,0,0,1-.85-.85" transform="translate(-0.25 -0.098)" fill="#fff"/>
  </g>
</svg>
