<svg xmlns="http://www.w3.org/2000/svg" xmlns:xlink="http://www.w3.org/1999/xlink" width="18" height="12" viewBox="0 0 18 12">
  <defs>
    <clipPath id="clip-path">
      <rect id="사각형_2727" data-name="사각형 2727" width="18" height="12" fill="gray"/>
    </clipPath>
  </defs>
  <g id="그룹_8810" data-name="그룹 8810" clip-path="url(#clip-path)">
    <path id="패스_7161" data-name="패스 7161" d="M18,6.184c-.159.21-.317.421-.477.631-.147.193-.284.4-.448.575-.45.486-.894.981-1.373,1.435a13.817,13.817,0,0,1-2.412,1.856,9.514,9.514,0,0,1-2.086.979,7.115,7.115,0,0,1-1.606.318A7.539,7.539,0,0,1,7.771,11.9a8.645,8.645,0,0,1-3.324-1.391c-.569-.381-1.116-.8-1.655-1.226A9.681,9.681,0,0,1,1.967,8.5c-.281-.282-.562-.565-.822-.867C.8,7.237.459,6.833.151,6.4c-.233-.326-.2-.588.127-.984q.65-.784,1.327-1.544A14.2,14.2,0,0,1,3.176,2.4,11.348,11.348,0,0,1,5.534.864C6.016.636,6.524.469,7.025.29A6.076,6.076,0,0,1,8.45.022,6.815,6.815,0,0,1,9.83.063a7.289,7.289,0,0,1,2.243.62,10.218,10.218,0,0,1,2.143,1.26c.466.36.919.74,1.36,1.133A12.461,12.461,0,0,1,16.618,4.1c.436.492.839,1.015,1.253,1.528A1.615,1.615,0,0,1,18,5.853ZM1.342,6c.224.264.432.525.656.769A16.678,16.678,0,0,0,4.425,9.02a9.919,9.919,0,0,0,2.055,1.2,6.027,6.027,0,0,0,2.859.543,7.666,7.666,0,0,0,1.616-.334,7.761,7.761,0,0,0,1.76-.829,14.55,14.55,0,0,0,2.6-2.09c.236-.235.453-.492.676-.742s.436-.5.658-.758c-.167-.2-.316-.406-.483-.588-.327-.356-.649-.718-1-1.046-.476-.445-.962-.881-1.471-1.284a9.333,9.333,0,0,0-2.4-1.383,6.312,6.312,0,0,0-2.533-.459,2.817,2.817,0,0,0-.36.037,9.291,9.291,0,0,0-.976.172,7.694,7.694,0,0,0-1.876.791,9.629,9.629,0,0,0-.9.573c-.424.317-.836.652-1.238,1a13.184,13.184,0,0,0-.981.925c-.375.4-.722.824-1.094,1.252" transform="translate(0 -0.001)" fill="gray"/>
    <path id="패스_7162" data-name="패스 7162" d="M127.439,56.731a3.612,3.612,0,0,1-3.52-3.356,3.553,3.553,0,1,1,3.52,3.356m0-6.192a2.391,2.391,0,0,0-2.355,2.407,2.369,2.369,0,1,0,2.355-2.407" transform="translate(-118.456 -47.009)" fill="gray"/>
  </g>
</svg>
