<svg id="location_icon" data-name="location icon" xmlns="http://www.w3.org/2000/svg" width="16" height="21" viewBox="0 0 16 21">
  <path id="패스_6978" data-name="패스 6978" d="M15.365,9.9A8.473,8.473,0,0,0,15.5,8.481,7.752,7.752,0,0,0,8,.5,7.752,7.752,0,0,0,.5,8.481,8.473,8.473,0,0,0,.635,9.9c.024.145.056.285.087.426C1.926,15.874,8,20.5,8,20.5s6.073-4.626,7.277-10.17C15.309,10.189,15.34,10.049,15.365,9.9Z" fill="#fff" stroke="#343434" stroke-linejoin="round" stroke-width="1"/>
  <path id="패스_6977" data-name="패스 6977" d="M3.526,9.705l2.134-6H7.392l2.134,6H7.893L7.5,8.479H5.512L5.117,9.705ZM7.15,7.392,6.5,5.414,5.86,7.392Z" transform="translate(1.473 0.801)" fill="#343434"/>
</svg>
