<svg id="instagram" xmlns="http://www.w3.org/2000/svg" width="12" height="12" viewBox="0 0 12 12">
  <g id="그룹_6170" data-name="그룹 6170">
    <path id="패스_6666" data-name="패스 6666" d="M159.573,64.52H154.5a3.463,3.463,0,0,0-3.464,3.463v5.073A3.464,3.464,0,0,0,154.5,76.52h5.072a3.464,3.464,0,0,0,3.464-3.464V67.983A3.463,3.463,0,0,0,159.573,64.52Zm2.359,8.625a2.3,2.3,0,0,1-2.3,2.3h-5.192a2.3,2.3,0,0,1-2.3-2.3V67.954a2.3,2.3,0,0,1,2.3-2.3h5.192a2.3,2.3,0,0,1,2.3,2.3Z" transform="translate(-151.037 -64.52)" fill="#fff"/>
    <path id="패스_6667" data-name="패스 6667" d="M157.037,67.436a3.114,3.114,0,1,0,3.114,3.113A3.114,3.114,0,0,0,157.037,67.436Zm0,5.132a2.019,2.019,0,1,1,2.018-2.019A2.018,2.018,0,0,1,157.037,72.568Z" transform="translate(-151.037 -64.52)" fill="#fff"/>
    <circle id="타원_17" data-name="타원 17" cx="0.725" cy="0.725" r="0.725" transform="translate(8.492 2.072)" fill="#fff"/>
  </g>
</svg>
