<svg id="kakao_ch" data-name="kakao ch" xmlns="http://www.w3.org/2000/svg" width="11.346" height="12" viewBox="0 0 11.346 12">
  <path id="패스_6665" data-name="패스 6665" d="M208.277,64.52a5.472,5.472,0,0,0-5.673,5.247,4.59,4.59,0,0,0,2.124,4.094l.006,0v2.512a.144.144,0,0,0,.23.116l2.151-1.6.047.02a6.182,6.182,0,0,0,1.115.1,5.263,5.263,0,1,0,0-10.5Zm-4.039,5.241a2.086,2.086,0,0,1,2.137-2.127,1.971,1.971,0,0,1,2,1.669h-.821a1.168,1.168,0,0,0-1.183-.889,1.285,1.285,0,0,0-1.335,1.347,1.318,1.318,0,0,0,1.335,1.336,1.185,1.185,0,0,0,1.175-.847h.823a1.969,1.969,0,0,1-2,1.638A2.086,2.086,0,0,1,204.238,69.761Zm7.557,2.046h-.754v-1.7a.541.541,0,0,0-.578-.6c-.392,0-.643.24-.643.725v1.578h-.754v-4.16h.754v1.565a.966.966,0,0,1,.871-.409,1.034,1.034,0,0,1,.788.321,1.212,1.212,0,0,1,.316.889Z" transform="translate(-202.604 -64.52)" fill="#fff"/>
</svg>
