<svg id="Pinterest" xmlns="http://www.w3.org/2000/svg" width="9.335" height="12" viewBox="0 0 9.335 12">
  <g id="그룹_6172" data-name="그룹 6172">
    <path id="패스_6668" data-name="패스 6668" d="M232.324,73.223a3.262,3.262,0,0,1-1.61-.766c-.315,1.652-.7,3.235-1.84,4.063-.352-2.5.517-4.373.92-6.363-.688-1.158.083-3.488,1.533-2.914,1.785.706-1.545,4.3.69,4.754,2.334.469,3.287-4.05,1.84-5.52-2.092-2.123-6.088-.048-5.6,2.99.12.742.888.968.307,1.993-1.339-.3-1.738-1.352-1.686-2.76a4.5,4.5,0,0,1,4.063-4.14c2.521-.282,4.887.926,5.213,3.3.368,2.676-1.138,5.574-3.833,5.366Z" transform="translate(-226.877 -64.52)" fill="#fff"/>
  </g>
</svg>
