<svg xmlns="http://www.w3.org/2000/svg" width="11.124" height="9.6" viewBox="0 0 11.124 9.6">
  <path id="vimeo" d="M260.257,67.94q-.075,1.622-2.269,4.438-2.268,2.941-3.839,2.942-.972,0-1.645-1.795l-.9-3.291q-.5-1.8-1.072-1.795a3.447,3.447,0,0,0-.873.524l-.523-.674q.816-.716,1.62-1.446a3.687,3.687,0,0,1,1.646-1q1.3-.125,1.595,1.77.324,2.044.449,2.543.374,1.7.823,1.695.348,0,1.047-1.1a4.32,4.32,0,0,0,.748-1.67q.1-.946-.748-.947a2.163,2.163,0,0,0-.823.174q.824-2.667,3.141-2.592,1.721.049,1.621,2.218Z" transform="translate(-249.138 -65.72)" fill="#fff"/>
</svg>
