<svg id="wechat" xmlns="http://www.w3.org/2000/svg" width="13.917" height="12" viewBox="0 0 13.917 12">
  <path id="패스_6662" data-name="패스 6662" d="M114.655,68.466a4.935,4.935,0,0,0-3.327,1.344,3.952,3.952,0,0,0-1.227,3.347c-.5-.063-.965-.132-1.427-.171a.894.894,0,0,0-.485.082c-.449.254-.88.54-1.39.859.094-.423.154-.794.261-1.151a.437.437,0,0,0-.2-.579,3.935,3.935,0,0,1-1.715-4.42,4.378,4.378,0,0,1,3.074-3,5.156,5.156,0,0,1,5.632,1.65A3.86,3.86,0,0,1,114.655,68.466Zm-5.945-.526a.6.6,0,0,0-.573-.6.579.579,0,0,0-.6.56.571.571,0,0,0,.566.593A.589.589,0,0,0,108.71,67.94Zm3.1-.6a.6.6,0,0,0-.583.587.583.583,0,0,0,.6.569.578.578,0,1,0-.015-1.156Z" transform="translate(-104.986 -64.52)" fill="#fff"/>
  <path id="패스_6663" data-name="패스 6663" d="M117.558,76.52a4.379,4.379,0,0,0-1.184-.5,6.646,6.646,0,0,0-1.233.231,4.119,4.119,0,0,1-3.341-1.09,3.388,3.388,0,0,1,.534-5.526,4.5,4.5,0,0,1,5.811.865,3.3,3.3,0,0,1-.381,4.6c-.4.353-.542.644-.286,1.11A1.362,1.362,0,0,1,117.558,76.52ZM112.9,72.011a.481.481,0,1,0,0-.962.481.481,0,1,0,0,.962Zm3-.961a.482.482,0,0,0-.478.46.475.475,0,0,0,.472.5.469.469,0,0,0,.477-.457A.478.478,0,0,0,115.9,71.05Z" transform="translate(-104.986 -64.52)" fill="#fff"/>
</svg>
