<svg id="weibo" xmlns="http://www.w3.org/2000/svg" width="13.416" height="10.8" viewBox="0 0 13.416 10.8">
  <path id="패스_6669" data-name="패스 6669" d="M286.592,68.343c.057.748-.069,1.643-.563,1.687-.806.072-.385-.815-.375-1.35a2.608,2.608,0,0,0-2.587-2.624c-.367,0-1.219.248-1.088-.526.059-.341.348-.336.637-.374A3.418,3.418,0,0,1,286.592,68.343Z" transform="translate(-273.189 -65.12)" fill="#fff"/>
  <path id="패스_6670" data-name="패스 6670" d="M283.029,70.143c.937.512,2.061.767,1.875,2.288a2.914,2.914,0,0,1-.487,1.162c-1.583,2.215-6.357,3.146-9.338,1.462a3.013,3.013,0,0,1-1.874-3.038,5.9,5.9,0,0,1,2.025-3.449,6.579,6.579,0,0,1,3.112-1.913c1.389-.349,1.8.809,1.425,1.95.8-.054,2.509-.951,3.262-.075A1.709,1.709,0,0,1,283.029,70.143Zm-1.012,3.6a2.261,2.261,0,0,0,.6-1.463c0-1.863-2.351-2.551-4.2-2.4a5.215,5.215,0,0,0-2.4.713,2.762,2.762,0,0,0-1.425,1.725c-.379,1.87,1.656,2.75,3.15,2.85A5.5,5.5,0,0,0,282.017,73.743Z" transform="translate(-273.189 -65.12)" fill="#fff"/>
  <path id="패스_6671" data-name="패스 6671" d="M284.754,68.343c.079.571-.085,1.066-.412,1.087-.547.037-.342-.374-.376-.862a1.021,1.021,0,0,0-.487-.75c-.427-.2-1.088.145-1.088-.45,0-.442.384-.4.6-.413A1.614,1.614,0,0,1,284.754,68.343Z" transform="translate(-273.189 -65.12)" fill="#fff"/>
  <path id="패스_6672" data-name="패스 6672" d="M280.367,72.093c.8,2.414-3.364,3.537-4.125,1.462a2.067,2.067,0,0,1,1.987-2.625A1.932,1.932,0,0,1,280.367,72.093Zm-1.913.412a.282.282,0,0,0,.525-.149C278.939,72.087,278.451,72.126,278.454,72.5Zm-.675,1.276c.7-.167.794-1.485-.262-1.238C276.629,72.75,276.8,74.013,277.779,73.781Z" transform="translate(-273.189 -65.12)" fill="#fff"/>
</svg>
