<svg xmlns="http://www.w3.org/2000/svg" width="75" height="9.824" viewBox="0 0 75 9.824">
    <path data-name="패스 6696" d="M10.074.189h3.279a5.624 5.624 0 0 1 2.034.344 4.213 4.213 0 0 1 1.506.965 4.148 4.148 0 0 1 .935 1.477 5.308 5.308 0 0 1 .322 1.883v.027a5.331 5.331 0 0 1-.328 1.9 4.2 4.2 0 0 1-2.471 2.5 5.536 5.536 0 0 1-2.047.357h-3.231zm3.319 7.126a2.359 2.359 0 0 0 1.706-.621 2.334 2.334 0 0 0 .646-1.768v-.027a2.2 2.2 0 0 0-2.352-2.388h-.963v4.8z"/>
    <path data-name="패스 6697" d="M18.697.189h6.826v2.227h-4.511v1.431h4.081v2.064h-4.081v1.5h4.567v2.226h-6.886z"/>
    <path data-name="패스 6698" d="M26.129.189h4.02a4.521 4.521 0 0 1 1.664.27 2.82 2.82 0 0 1 1.106.756 3.1 3.1 0 0 1 .753 2.2v.027a3.216 3.216 0 0 1-.473 1.808 3.061 3.061 0 0 1-1.276 1.093l2.028 3.292H31.23l-1.712-2.861h-1.033v2.861h-2.356zm3.911 4.534a1.324 1.324 0 0 0 .935-.3 1.057 1.057 0 0 0 .328-.816v-.035a1.022 1.022 0 0 0-.341-.843 1.443 1.443 0 0 0-.934-.277h-1.543v2.267z"/>
    <path data-name="패스 6699" d="M34.194.189h6.825v2.227h-4.505v1.431h4.081v2.064h-4.081v1.5h4.566v2.226h-6.886z"/>
    <path data-name="패스 6700" d="M41.626.189h4.02a4.521 4.521 0 0 1 1.664.27 2.821 2.821 0 0 1 1.106.756 3.1 3.1 0 0 1 .753 2.2v.027a3.216 3.216 0 0 1-.473 1.808 3.061 3.061 0 0 1-1.276 1.093l2.028 3.292h-2.721l-1.712-2.861h-1.032v2.861h-2.356zm3.911 4.534a1.324 1.324 0 0 0 .935-.3 1.057 1.057 0 0 0 .328-.816v-.035a1.022 1.022 0 0 0-.341-.843 1.443 1.443 0 0 0-.934-.277h-1.543v2.267z"/>
    <path data-name="패스 6701" d="M49.691.189h4.02a4.525 4.525 0 0 1 1.664.27 2.814 2.814 0 0 1 1.105.756 3.1 3.1 0 0 1 .753 2.2v.027a3.211 3.211 0 0 1-.473 1.808 3.061 3.061 0 0 1-1.276 1.093l2.028 3.292h-2.721l-1.712-2.861h-1.032v2.861h-2.356zm3.911 4.534a1.324 1.324 0 0 0 .935-.3 1.057 1.057 0 0 0 .328-.816v-.035a1.023 1.023 0 0 0-.341-.843 1.443 1.443 0 0 0-.935-.277h-1.542v2.267z"/>
    <path data-name="패스 6702" d="M62.029 9.823a4.31 4.31 0 0 1-1.822-.384 4.463 4.463 0 0 1-1.445-1.046 4.865 4.865 0 0 1-.954-1.552 5.209 5.209 0 0 1-.346-1.9v-.027a5.264 5.264 0 0 1 .346-1.909 4.836 4.836 0 0 1 .966-1.566A4.564 4.564 0 0 1 60.232.387a4.5 4.5 0 0 1 3.643 0 4.464 4.464 0 0 1 1.445 1.046 4.884 4.884 0 0 1 .953 1.552 5.2 5.2 0 0 1 .346 1.9v.027a5.251 5.251 0 0 1-.346 1.909 4.818 4.818 0 0 1-.966 1.565 4.544 4.544 0 0 1-1.457 1.053 4.31 4.31 0 0 1-1.821.384zm.018-2.361a1.947 1.947 0 0 0 .889-.2 2.064 2.064 0 0 0 .682-.546 2.6 2.6 0 0 0 .438-.8 2.953 2.953 0 0 0 .158-.971v-.027a2.959 2.959 0 0 0-.158-.972 2.551 2.551 0 0 0-.451-.809 2.242 2.242 0 0 0-.694-.56 2.007 2.007 0 0 0-1.772-.007 2.151 2.151 0 0 0-.682.546 2.435 2.435 0 0 0-.438.8 3.064 3.064 0 0 0-.152.972v.027a2.957 2.957 0 0 0 .158.972 2.616 2.616 0 0 0 .444.809 2.165 2.165 0 0 0 .688.56 1.9 1.9 0 0 0 .89.207z"/>
    <path data-name="패스 6703" d="M67.179.189h4.02a4.521 4.521 0 0 1 1.664.27 2.815 2.815 0 0 1 1.1.756 3.1 3.1 0 0 1 .753 2.2v.027a3.211 3.211 0 0 1-.474 1.808 3.058 3.058 0 0 1-1.276 1.093l2.028 3.292h-2.721l-1.712-2.861h-1.032v2.861h-2.356zm3.911 4.534a1.324 1.324 0 0 0 .935-.3 1.057 1.057 0 0 0 .328-.816v-.035a1.023 1.023 0 0 0-.341-.843 1.443 1.443 0 0 0-.934-.277h-1.543v2.267z"/>
    <path data-name="패스 6704" d="M7.029.189h-.876L-.001 9.635h2.826l1.072-1.646h3.131v1.646h2.367V.189H7.029zM5.243 5.924l1.786-2.741v2.741z"/>
</svg>
