<svg xmlns="http://www.w3.org/2000/svg" width="20.752" height="20.55" viewBox="0 0 20.752 20.55">
  <g id="S아이콘" transform="translate(0.753)">
    <path id="패스_7138" data-name="패스 7138" d="M3.548,4.205A2.4,2.4,0,0,1,.287,3.472,2.294,2.294,0,0,1,1.27.342a2.4,2.4,0,0,1,3.261.733A2.294,2.294,0,0,1,3.548,4.205Z" transform="matrix(0.996, 0.087, -0.087, 0.996, 2.263, 10.82)" fill="none" stroke="#343434" stroke-miterlimit="10" stroke-width="1"/>
    <path id="패스_7139" data-name="패스 7139" d="M10.185,0,0,5.753a2.207,2.207,0,0,0,2.928.635l5.664-3.2Z" transform="matrix(0.996, 0.087, -0.087, 0.996, 9.854, 4.613)" fill="#343434"/>
    <line id="선_2873" data-name="선 2873" x1="11.583" y2="6.542" transform="matrix(0.996, 0.087, -0.087, 0.996, 6.657, 5.807)" fill="none" stroke="#343434" stroke-miterlimit="10" stroke-width="1"/>
    <path id="패스_7140" data-name="패스 7140" d="M2.078.273A1.629,1.629,0,0,1,0,0" transform="matrix(0.996, 0.087, -0.087, 0.996, 0.046, 12.293)" fill="none" stroke="#343434" stroke-linecap="round" stroke-miterlimit="10" stroke-width="1"/>
    <path id="패스_7141" data-name="패스 7141" d="M3.536,0,2.151,8.329,0,9.1c.005-.033,1.084-6.517,1.084-6.517Z" transform="matrix(0.996, -0.087, 0.087, 0.996, 8.915, 0.309)" fill="#343434"/>
    <line id="선_2874" data-name="선 2874" x1="0.535" y2="3.213" transform="matrix(0.996, -0.087, 0.087, 0.996, 10.441, 11.922)" fill="none" stroke="#343434" stroke-miterlimit="10" stroke-width="1"/>
    <path id="패스_7142" data-name="패스 7142" d="M.036,2.029a2.4,2.4,0,0,0,1.8,2.814A2.3,2.3,0,0,0,4.446,2.849,2.4,2.4,0,0,0,2.641.035,2.294,2.294,0,0,0,.036,2.029Z" transform="matrix(0.996, -0.087, 0.087, 0.996, 7.985, 15.143)" fill="none" stroke="#343434" stroke-miterlimit="10" stroke-width="1"/>
  </g>
</svg>
