<svg id="instagram" xmlns="http://www.w3.org/2000/svg" width="16" height="16" viewBox="0 0 16 16">
  <g id="그룹_6634" data-name="그룹 6634">
    <path id="패스_6751" data-name="패스 6751" d="M162.418,64.52h-6.763a4.618,4.618,0,0,0-4.619,4.617V75.9a4.619,4.619,0,0,0,4.619,4.619h6.763a4.619,4.619,0,0,0,4.619-4.619V69.137A4.618,4.618,0,0,0,162.418,64.52Zm3.145,11.5a3.065,3.065,0,0,1-3.065,3.065h-6.923a3.065,3.065,0,0,1-3.065-3.065V69.1a3.065,3.065,0,0,1,3.065-3.065H162.5a3.065,3.065,0,0,1,3.065,3.065Z" transform="translate(-151.037 -64.52)" fill="#191919"/>
    <path id="패스_6752" data-name="패스 6752" d="M158.075,67.436a4.151,4.151,0,1,0,4.152,4.151A4.151,4.151,0,0,0,158.075,67.436Zm0,6.843a2.691,2.691,0,1,1,2.691-2.692A2.691,2.691,0,0,1,158.075,74.279Z" transform="translate(-150.075 -63.548)" fill="#191919"/>
    <circle id="타원_20" data-name="타원 20" cx="0.967" cy="0.967" r="0.967" transform="translate(11.323 2.763)" fill="#191919"/>
  </g>
</svg>
