<svg xmlns="http://www.w3.org/2000/svg" width="150.199" height="19.674" viewBox="0 0 150.199 19.674">
  <g id="logo" transform="translate(-105 -247)">
    <g id="mo_logo" transform="translate(105 247)">
      <path id="패스_6723" data-name="패스 6723" d="M379.009-339.544h6.566a11.3,11.3,0,0,1,4.074.689,8.449,8.449,0,0,1,3.015,1.932,8.326,8.326,0,0,1,1.874,2.961,10.63,10.63,0,0,1,.644,3.77v.052a10.7,10.7,0,0,1-.657,3.8,8.6,8.6,0,0,1-1.9,3.013,8.647,8.647,0,0,1-3.053,1.986,11.092,11.092,0,0,1-4.1.715h-6.468Zm6.646,14.269a4.722,4.722,0,0,0,3.417-1.243,4.674,4.674,0,0,0,1.294-3.539v-.054a4.689,4.689,0,0,0-1.294-3.528,4.7,4.7,0,0,0-3.417-1.256h-1.928v9.62Z" transform="translate(-358.834 339.921)" fill="#0000c5"/>
      <path id="패스_6724" data-name="패스 6724" d="M388.206-339.544h13.668v4.459h-9.023v2.865h8.173v4.134h-8.173v3H402v4.459h-13.79Z" transform="translate(-350.763 339.921)" fill="#0000c5"/>
      <path id="패스_6725" data-name="패스 6725" d="M396.134-339.544h8.051a9.058,9.058,0,0,1,3.333.541,5.662,5.662,0,0,1,2.214,1.513,6.217,6.217,0,0,1,1.508,4.4v.054a6.426,6.426,0,0,1-.948,3.622,6.132,6.132,0,0,1-2.553,2.189l4.061,6.594h-5.448l-3.43-5.73h-2.067v5.73h-4.718Zm7.831,9.081a2.654,2.654,0,0,0,1.874-.608,2.116,2.116,0,0,0,.657-1.635v-.054a2.044,2.044,0,0,0-.682-1.688,2.881,2.881,0,0,0-1.872-.556h-3.09v4.542Z" transform="translate(-343.807 339.921)" fill="#0000c5"/>
      <path id="패스_6726" data-name="패스 6726" d="M404.736-339.544H418.4v4.459h-9.023v2.865h8.173v4.134h-8.173v3h9.145v4.459h-13.79Z" transform="translate(-336.258 339.921)" fill="#0000c5"/>
      <path id="패스_6727" data-name="패스 6727" d="M412.664-339.544h8.051a9.058,9.058,0,0,1,3.333.541,5.676,5.676,0,0,1,2.214,1.513,6.217,6.217,0,0,1,1.508,4.4v.054a6.441,6.441,0,0,1-.948,3.622,6.138,6.138,0,0,1-2.555,2.189l4.063,6.594h-5.448l-3.43-5.73h-2.067v5.73h-4.718Zm7.831,9.081a2.657,2.657,0,0,0,1.874-.608,2.122,2.122,0,0,0,.657-1.635v-.054a2.044,2.044,0,0,0-.682-1.688,2.881,2.881,0,0,0-1.872-.556h-3.09v4.542Z" transform="translate(-329.302 339.921)" fill="#0000c5"/>
      <path id="패스_6728" data-name="패스 6728" d="M421.266-339.544h8.051a9.058,9.058,0,0,1,3.333.541,5.676,5.676,0,0,1,2.214,1.513,6.217,6.217,0,0,1,1.508,4.4v.054a6.442,6.442,0,0,1-.948,3.622,6.138,6.138,0,0,1-2.555,2.189l4.063,6.594h-5.448l-3.43-5.73h-2.067v5.73h-4.718Zm7.831,9.081a2.657,2.657,0,0,0,1.874-.608,2.122,2.122,0,0,0,.657-1.635v-.054a2.05,2.05,0,0,0-.682-1.688,2.885,2.885,0,0,0-1.872-.556h-3.09v4.542Z" transform="translate(-321.754 339.921)" fill="#0000c5"/>
      <path id="패스_6729" data-name="패스 6729" d="M438.7-320.071a8.629,8.629,0,0,1-3.648-.772,8.945,8.945,0,0,1-2.893-2.093,9.757,9.757,0,0,1-1.909-3.109,10.421,10.421,0,0,1-.693-3.809v-.054a10.545,10.545,0,0,1,.693-3.824,9.657,9.657,0,0,1,1.934-3.134,9.109,9.109,0,0,1,2.918-2.108,8.628,8.628,0,0,1,3.648-.77,8.631,8.631,0,0,1,3.65.77,8.942,8.942,0,0,1,2.893,2.093,9.778,9.778,0,0,1,1.909,3.109,10.429,10.429,0,0,1,.693,3.809v.054a10.538,10.538,0,0,1-.693,3.824,9.664,9.664,0,0,1-1.934,3.135,9.1,9.1,0,0,1-2.918,2.107A8.632,8.632,0,0,1,438.7-320.071Zm.038-4.729a3.9,3.9,0,0,0,1.78-.406,4.155,4.155,0,0,0,1.367-1.095,5.236,5.236,0,0,0,.879-1.609,5.943,5.943,0,0,0,.317-1.945v-.054a5.952,5.952,0,0,0-.317-1.945,5.145,5.145,0,0,0-.9-1.622,4.516,4.516,0,0,0-1.391-1.121,3.793,3.793,0,0,0-1.78-.419,3.827,3.827,0,0,0-1.769.406,4.323,4.323,0,0,0-1.365,1.093,4.889,4.889,0,0,0-.879,1.609,6.149,6.149,0,0,0-.3,1.945v.054a5.96,5.96,0,0,0,.315,1.947,5.235,5.235,0,0,0,.892,1.62,4.339,4.339,0,0,0,1.378,1.123A3.815,3.815,0,0,0,438.738-324.8Z" transform="translate(-314.478 339.745)" fill="#0000c5"/>
      <path id="패스_6730" data-name="패스 6730" d="M439.92-339.544h8.051A9.059,9.059,0,0,1,451.3-339a5.661,5.661,0,0,1,2.213,1.513,6.217,6.217,0,0,1,1.508,4.4v.054a6.426,6.426,0,0,1-.948,3.622,6.127,6.127,0,0,1-2.555,2.189l4.063,6.594h-5.448l-3.43-5.73h-2.067v5.73H439.92Zm7.831,9.081a2.654,2.654,0,0,0,1.874-.608,2.122,2.122,0,0,0,.657-1.635v-.054a2.044,2.044,0,0,0-.682-1.688,2.881,2.881,0,0,0-1.872-.556h-3.09v4.542Z" transform="translate(-305.385 339.921)" fill="#0000c5"/>
      <path id="패스_6731" data-name="패스 6731" d="M380.587-339.544l-12.324,18.918h5.659l2.148-3.3h6.271v3.3h4.741v-18.918Zm-1.823,11.486,3.577-5.492v5.492Z" transform="translate(-368.263 339.921)" fill="#0000c5"/>
    </g>
  </g>
</svg>
